<svg xmlns="http://www.w3.org/2000/svg" fill-rule="evenodd" stroke-linejoin="round" stroke-miterlimit="2" clip-rule="evenodd" viewBox="0 0 640 640" width="32" height="32"><clipPath id="a"><path d="M378.9 154.6c-29 .4 29.8-.2 16.7-.1v117.2c-5.5-2.6-11.1-5.3-16.6-7.9 0-36.4-.1-109.2-.1-109.2zm47 306.9s-6.1 14.5-19.6 15.4c-5.8.4-10.3-1.2-10.3-1.2s-.3-.1-5.3-2.1l-112.9-55s-10.9-5.7-12.8-15.6c-2.2-8.1 2.7-18.1 2.7-18.1L322 273s4.8-9.7 12.2-13c.6-.3 2.3-1 4.5-1.5 8.1-2.1 18 2.8 18 2.8L467.4 315s12.6 5.7 15.3 16.2c1.9 7.4-.5 14-1.8 17.2-6.3 15.4-55 113.1-55 113.1z" clip-rule="nonzero"/></clipPath><g fill-rule="nonzero"><path fill="#a6da95" d="M622.7 149.8c-4.1-4.1-9.6-4-9.6-4s-117.2 6.6-177.9 8c-13.3.3-26.5.6-39.6.7v117.2c-5.5-2.6-11.1-5.3-16.6-7.9 0-36.4-.1-109.2-.1-109.2-29 .4-89.2-2.2-89.2-2.2s-141.4-7.1-156.8-8.5c-9.8-.6-22.5-2.1-39 1.5-8.7 1.8-33.5 7.4-53.8 26.9C-4.9 212.4 6.6 276.2 8 285.8c1.7 11.7 6.9 44.2 31.7 72.5 45.8 56.1 144.4 54.8 144.4 54.8s12.1 28.9 30.6 55.5c25 33.1 50.7 58.9 75.7 62 63 0 188.9-.1 188.9-.1s12 .1 28.3-10.3c14-8.5 26.5-23.4 26.5-23.4S547 483 565 451.5c5.5-9.7 10.1-19.1 14.1-28 0 0 55.2-117.1 55.2-231.1-1.1-34.5-9.6-40.6-11.6-42.6zM125.6 353.9c-25.9-8.5-36.9-18.7-36.9-18.7S69.6 321.8 60 295.4c-16.5-44.2-1.4-71.2-1.4-71.2s8.4-22.5 38.5-30c13.8-3.7 31-3.1 31-3.1s7.1 59.4 15.7 94.2c7.2 29.2 24.8 77.7 24.8 77.7s-26.1-3.1-43-9.1zm300.3 107.6s-6.1 14.5-19.6 15.4c-5.8.4-10.3-1.2-10.3-1.2s-.3-.1-5.3-2.1l-112.9-55s-10.9-5.7-12.8-15.6c-2.2-8.1 2.7-18.1 2.7-18.1L322 273s4.8-9.7 12.2-13c.6-.3 2.3-1 4.5-1.5 8.1-2.1 18 2.8 18 2.8L467.4 315s12.6 5.7 15.3 16.2c1.9 7.4-.5 14-1.8 17.2-6.3 15.4-55 113.1-55 113.1z"/><path fill="#a6da95" d="M326.8 380.1c-8.2.1-15.4 5.8-17.3 13.8s2 16.3 9.1 20c7.7 4 17.5 1.8 22.7-5.4 5.1-7.1 4.3-16.9-1.8-23.1l24-49.1c1.5.1 3.7.2 6.2-.5 4.1-.9 7.1-3.6 7.1-3.6 4.2 1.8 8.6 3.8 13.2 6.1 4.8 2.4 9.3 4.9 13.4 7.3.9.5 1.8 1.1 2.8 1.9 1.6 1.3 3.4 3.1 4.7 5.5 1.9 5.5-1.9 14.9-1.9 14.9-2.3 7.6-18.4 40.6-18.4 40.6-8.1-.2-15.3 5-17.7 12.5-2.6 8.1 1.1 17.3 8.9 21.3s17.4 1.7 22.5-5.3c5-6.8 4.6-16.3-1.1-22.6 1.9-3.7 3.7-7.4 5.6-11.3 5-10.4 13.5-30.4 13.5-30.4.9-1.7 5.7-10.3 2.7-21.3-2.5-11.4-12.6-16.7-12.6-16.7-12.2-7.9-29.2-15.2-29.2-15.2s0-4.1-1.1-7.1c-1.1-3.1-2.8-5.1-3.9-6.3 4.7-9.7 9.4-19.3 14.1-29-4.1-2-8.1-4-12.2-6.1-4.8 9.8-9.7 19.7-14.5 29.5-6.7-.1-12.9 3.5-16.1 9.4-3.4 6.3-2.7 14.1 1.9 19.8l-24.6 50.4z"/><path fill="#24273a" d="m395.9 484.2-126.9-61c-12.5-6-17.9-21.2-11.8-33.8l61-126.9c6-12.5 21.2-17.9 33.8-11.8 17.2 8.3 27.1 13 27.1 13l-.1-109.2 16.7-.1.1 117.1s57.4 24.2 83.1 40.1c3.7 2.3 10.2 6.8 12.9 14.4 2.1 6.1 2 13.1-1 19.3l-61 126.9c-6.2 12.7-21.4 18.1-33.9 12z"/></g><g clip-path="url(#a)"><path fill="#c6a0f6" d="M286.62 425.668 269.56 378.8l46.629-99.994 47.854-17.417 99.993 46.628 17.059 46.868-61.846 132.629z"/><path fill="#7dc4e4" d="m454.978 410.893-112.35 40.892-87.972-41.022 61.533-131.957 47.854-17.417L496 322.92z"/><path fill="#a6da95" d="m475.489 366.907-176.847 64.367-43.986-20.511 61.533-131.957 47.854-17.417L496 322.92z"/><path fill="#eed49f" d="m496 322.921-241.344 87.842 61.533-131.957 47.854-17.417z"/><path fill="#f5a97f" d="m275.167 366.777 41.022-87.97 47.854-17.418 87.97 41.022z"/><path fill="#ed8796" d="m408.028 281.9-112.35 40.892 35.73-76.621z"/><path fill="#24273a" d="m292.108 428.228-.18-.248c6.392-10.06 12.829-18.468 19.322-25.229-10.039-12.95-14.474-28.924-9.059-46.48 4.72-15.3 15.815-30.528 29.9-38.42 1.618-8.95 5.91-25.632 12.059-33.372a5.286 5.286 0 0 1 6.707-1.365c10.81 5.885 17.798 14.472 21.129 26.348 16.088 1.277 33.438 9.467 43.207 18.057 9.77-5.49 18.869-6.67 29.251-4.608 2.44.483 4.177 2.513 4.28 5 .406 10.03-4.448 21.593-10.977 30.035 14.754 38.571-9.797 73.272-48.037 77.378-2.664 11.149-6.366 22.226-11.114 33.234z"/><path fill="#cad3f5" d="M417.02 358.644c6.506 2.57 9.988 9.334 8.962 15.917a1.4 1.4 0 0 1-1.276 1.202 1.448 1.448 0 0 1-1.499-.96c-1.504-4.12-4.64-7.58-8.909-9.31a15.036 15.036 0 0 0-12.475.492c-.561.284-1.22.147-1.628-.34s-.435-1.17-.07-1.71c3.594-5.318 10.49-7.819 16.895-5.29zm-41.574-18.175c3.698 1.453 6.522 4.185 8.248 7.55 1.742 3.394 2.377 7.426 1.689 11.414-.141.804-.754 1.401-1.526 1.486-.771.082-1.455-.374-1.702-1.128-1.623-4.935-5.154-9.033-10.044-11.016-4.819-1.953-10.004-1.45-14.348.906-.665.366-1.408.217-1.858-.361s-.469-1.406-.044-2.051c2.13-3.242 5.196-5.649 8.615-6.898 3.448-1.259 7.3-1.343 10.97.098zm17.044 34.324c1.99.777 3.92 1.53 5.783 2.262.616.243.968 1.01.898 1.94s-.532 1.766-1.19 2.172c-4.119 2.542-6.506 3.643-8.393 3.034-1.944-.63-3.417-3.122-5.882-8.038-.446-.88-.39-2.025.137-2.927.523-.907 1.378-1.284 2.168-.976 2.236.872 4.397 1.72 6.48 2.533zm-4.937 13.858c.744-.403 1.515-.2 1.93.498 1.303 2.234 2.75 3.484 4.326 3.827 1.544.333 3.183.722 5.218-.574 3.17-2.013 2.833.037.832 1.91-1.23 1.149-3.086 2.301-5.11 2.695-2.074.402-4.402.022-6.521-2.047-.739-.72-1.721-.93-2.8-.596-2.508.773-5.062.67-7.299-.33-2.34-1.044-4.399-3.085-5.696-6.172-1.437-3.423-.265-5.9 2.614-1.5 1.682 2.583 3.946 3.114 5.911 3.606 1.918.472 4.11.03 6.595-1.317z"/><path fill="#ee99a0" d="M362.787 438.649c-3.679 3.004-9.69 4.015-13.774 2.502a1.174 1.174 0 0 1-.775-1.02c-.588-6.918 1.872-13.084 5.268-17.648.206-.276.485-.437.827-.474.345-.037.653.056.912.281 4.616 3.969 7.745 7.753 9.388 11.353 3.052-1.608 6.462-2.115 10.233-1.514.645.103 1.087.704.997 1.348-.645 4.562-2.316 9.005-5.16 12.386-.412.49-1.356.598-1.978.08-2.422-2.008-4.63-4.724-5.938-7.294z"/></g></svg>